<svg width="175" height="175" viewBox="0 0 175 175" fill="none" xmlns="http://www.w3.org/2000/svg">
<path d="M0 17.5C0 7.83502 7.83502 0 17.5 0H157.5C167.165 0 175 7.83502 175 17.5V157.5C175 167.165 167.165 175 157.5 175H17.5C7.83502 175 0 167.165 0 157.5V17.5Z" fill="#F6D0A5"/>
<path fill-rule="evenodd" clip-rule="evenodd" d="M31 48.5C31 46.567 32.567 45 34.5 45H139.5C141.433 45 143 46.567 143 48.5C143 50.433 141.433 52 139.5 52H34.5C32.567 52 31 50.433 31 48.5Z" fill="#414141"/>
<path d="M90.5 48.5C90.5 52.366 87.366 55.5 83.5 55.5C79.634 55.5 76.5 52.366 76.5 48.5C76.5 44.634 79.634 41.5 83.5 41.5C87.366 41.5 90.5 44.634 90.5 48.5Z" fill="white"/>
<path fill-rule="evenodd" clip-rule="evenodd" d="M94 48.5C94 54.299 89.299 59 83.5 59C77.701 59 73 54.299 73 48.5C73 42.701 77.701 38 83.5 38C89.299 38 94 42.701 94 48.5ZM83.5 55.5C87.366 55.5 90.5 52.366 90.5 48.5C90.5 44.634 87.366 41.5 83.5 41.5C79.634 41.5 76.5 44.634 76.5 48.5C76.5 52.366 79.634 55.5 83.5 55.5Z" fill="#414141"/>
<path fill-rule="evenodd" clip-rule="evenodd" d="M31 87C31 85.067 32.567 83.5 34.5 83.5H139.5C141.433 83.5 143 85.067 143 87C143 88.933 141.433 90.5 139.5 90.5H34.5C32.567 90.5 31 88.933 31 87Z" fill="#414141"/>
<path d="M59 87C59 90.866 55.866 94 52 94C48.134 94 45 90.866 45 87C45 83.134 48.134 80 52 80C55.866 80 59 83.134 59 87Z" fill="white"/>
<path fill-rule="evenodd" clip-rule="evenodd" d="M62.5 87C62.5 92.799 57.799 97.5 52 97.5C46.201 97.5 41.5 92.799 41.5 87C41.5 81.201 46.201 76.5 52 76.5C57.799 76.5 62.5 81.201 62.5 87ZM52 94C55.866 94 59 90.866 59 87C59 83.134 55.866 80 52 80C48.134 80 45 83.134 45 87C45 90.866 48.134 94 52 94Z" fill="#414141"/>
<path fill-rule="evenodd" clip-rule="evenodd" d="M31 125.5C31 123.567 32.567 122 34.5 122H139.5C141.433 122 143 123.567 143 125.5C143 127.433 141.433 129 139.5 129H34.5C32.567 129 31 127.433 31 125.5Z" fill="#414141"/>
<path d="M129 125.5C129 129.366 125.866 132.5 122 132.5C118.134 132.5 115 129.366 115 125.5C115 121.634 118.134 118.5 122 118.5C125.866 118.5 129 121.634 129 125.5Z" fill="white"/>
<path fill-rule="evenodd" clip-rule="evenodd" d="M132.5 125.5C132.5 131.299 127.799 136 122 136C116.201 136 111.5 131.299 111.5 125.5C111.5 119.701 116.201 115 122 115C127.799 115 132.5 119.701 132.5 125.5ZM122 132.5C125.866 132.5 129 129.366 129 125.5C129 121.634 125.866 118.5 122 118.5C118.134 118.5 115 121.634 115 125.5C115 129.366 118.134 132.5 122 132.5Z" fill="#414141"/>
</svg>
