<svg width="202" height="160" viewBox="0 0 202 160" fill="none" xmlns="http://www.w3.org/2000/svg">
<path d="M101 0.322754C156.148 0.322754 201.1 45.2121 201.1 100.283C201.1 122.291 193.935 142.736 181.795 159.277L164.277 144.64C173.075 132.115 178.22 116.811 178.22 100.283C178.22 57.56 143.783 23.1708 101 23.1708C58.2169 23.1708 23.7799 57.56 23.7799 100.283C23.7799 116.811 28.9248 132.115 37.7224 144.64L20.2049 159.277C8.06477 142.736 0.899902 122.291 0.899902 100.283C0.899902 45.2121 45.8517 0.322754 101 0.322754ZM50.4137 78.3274L111.099 118.758C116.684 124.335 116.684 133.351 111.099 138.928C105.514 144.505 96.4845 144.505 90.9007 138.928L50.4137 78.3274Z" fill="black"/>
</svg>
