<svg width="1000" height="1000" viewBox="0 0 1000 1000" fill="none" xmlns="http://www.w3.org/2000/svg">
<path d="M101.604 664.172C101.604 673.724 101.964 683.182 102.594 692.552C108.229 615.49 138.068 545.141 184.531 489.031L154.38 461.234C120.771 521.271 101.604 590.484 101.604 664.172Z" fill="#F6D0A5"/>
<mask id="mask0_421_795" style="mask-type:luminance" maskUnits="userSpaceOnUse" x="186" y="247" width="713" height="288">
<path d="M186.667 247.833H898.396V534.292H186.667V247.833Z" fill="white"/>
</mask>
<g mask="url(#mask0_421_795)">
<path d="M518.203 247.849C383.349 247.849 263.458 311.891 187.318 411.188L232.755 440.833C295.297 389.083 375.563 357.979 463.11 357.979C595.021 357.979 710.417 428.604 773.542 534.063L898.396 493.766C833.245 348.802 687.521 247.849 518.203 247.849Z" fill="#888888"/>
</g>
<mask id="mask1_421_795" style="mask-type:luminance" maskUnits="userSpaceOnUse" x="145" y="416" width="415" height="336">
<path d="M145.333 416H560V751.828H145.333V416Z" fill="white"/>
</mask>
<g mask="url(#mask1_421_795)">
<path d="M146.833 420.11L440.713 691.078C440.453 701.422 442.89 711.979 448.338 721.646C464.422 750.172 500.594 760.261 529.12 744.188C557.667 728.12 567.76 691.969 551.677 663.443C538.114 639.412 510.297 628.464 484.786 635.245L149.573 416.589C147.286 415.078 144.818 418.24 146.833 420.11Z" fill="white"/>
</g>
</svg>
