<svg width="1000" height="1000" viewBox="0 0 1000 1000" fill="none" xmlns="http://www.w3.org/2000/svg">
<mask id="mask0_421_797" style="mask-type:luminance" maskUnits="userSpaceOnUse" x="100" y="251" width="786" height="440">
<path d="M100 251.833H885.333V690.667H100V251.833Z" fill="white"/>
</mask>
<g mask="url(#mask0_421_797)">
<path d="M510.552 251.849C284.13 251.849 100.568 435.292 100.568 661.563C100.568 670.964 100.917 680.271 101.542 689.495C114.99 505.417 268.682 360.229 456.333 360.229C586.156 360.229 699.719 429.735 761.844 533.521L884.719 493.86C820.599 351.198 677.188 251.849 510.552 251.849Z" fill="#F6D0A5"/>
</g>
<mask id="mask1_421_797" style="mask-type:luminance" maskUnits="userSpaceOnUse" x="433" y="517" width="467" height="231">
<path d="M433.333 517.401H899.318V747.828H433.333V517.401Z" fill="white"/>
</mask>
<g mask="url(#mask1_421_797)">
<path d="M896.427 518.552L521.958 639.411C513.203 634.177 502.969 631.161 492.042 631.161C459.802 631.161 433.672 657.286 433.672 689.495C433.672 721.718 459.802 747.828 492.042 747.828C519.208 747.828 542.047 729.281 548.547 704.146L898.12 522.604C900.516 521.343 898.995 517.718 896.427 518.552Z" fill="white"/>
</g>
</svg>
