<svg width="200" height="159" viewBox="0 0 200 159" fill="none" xmlns="http://www.w3.org/2000/svg">
<path d="M100 0C44.873 0 0 44.7178 0 99.6531C0 121.856 7.35817 142.413 19.7321 159L32.5 147.7C22.8167 134.185 17.1429 117.577 17.1429 99.6531C17.1429 53.9503 54.1378 17.0835 100 17.0835C145.862 17.0835 182.857 53.9503 182.857 99.6531C182.857 117.577 177.183 134.185 167.5 147.7L180.268 159C192.642 142.413 200 121.856 200 99.6531C200 44.7178 155.127 0 100 0ZM150.536 74.9178L89.9107 115.224C84.3316 120.784 84.3318 129.773 89.9107 135.332C95.4897 140.892 104.51 140.892 110.089 135.332L150.536 74.9178Z" fill="black"/>
</svg>
