<svg width="32" height="25" viewBox="0 0 32 25" fill="none" xmlns="http://www.w3.org/2000/svg">
<g clip-path="url(#clip0_172_513)">
<path d="M10.2216 17.1875C15.8681 17.1875 20.4434 13.3398 20.4434 8.59375C20.4434 3.84766 15.8681 0 10.2216 0C4.57503 0 -0.000194577 3.84766 -0.000194577 8.59375C-0.000194577 10.4785 0.72221 12.2217 1.94587 13.6426C1.77387 14.1016 1.51833 14.5068 1.24804 14.8486C1.01215 15.1514 0.771353 15.3857 0.594438 15.5469C0.50598 15.625 0.432265 15.6885 0.383122 15.7275C0.35855 15.7471 0.338893 15.7617 0.329065 15.7666L0.319236 15.7764C0.0489486 15.9766 -0.068995 16.3281 0.0391199 16.6455C0.147235 16.9629 0.447008 17.1875 0.786096 17.1875C1.85742 17.1875 2.93857 16.9141 3.83789 16.5771C4.29 16.4062 4.71263 16.2158 5.08121 16.0205C6.5899 16.7627 8.34431 17.1875 10.2216 17.1875ZM22.0159 8.59375C22.0159 14.0771 17.1459 18.208 11.3764 18.7012C12.5706 22.334 16.5316 25 21.2296 25C23.1069 25 24.8613 24.5752 26.3749 23.833C26.7435 24.0283 27.1612 24.2188 27.6133 24.3896C28.5127 24.7266 29.5938 25 30.6651 25C31.0042 25 31.3089 24.7803 31.4121 24.458C31.5153 24.1357 31.4023 23.7842 31.1271 23.584L31.1172 23.5742C31.1074 23.5645 31.0878 23.5547 31.0632 23.5352C31.014 23.4961 30.9403 23.4375 30.8519 23.3545C30.675 23.1934 30.4342 22.959 30.1983 22.6562C29.928 22.3145 29.6724 21.9043 29.5004 21.4502C30.7241 20.0342 31.4465 18.291 31.4465 16.4014C31.4465 11.8701 27.2743 8.1543 21.9815 7.83203C22.0012 8.08105 22.011 8.33496 22.011 8.58887L22.0159 8.59375Z" fill="#414141"/>
</g>
<defs>
<clipPath id="clip0_172_513">
<rect width="31.4516" height="25" fill="white"/>
</clipPath>
</defs>
</svg>
