<svg width="194" height="154" viewBox="0 0 194 154" fill="none" xmlns="http://www.w3.org/2000/svg">
<path d="M97 0C43.5296 0 0 43.5133 0 96.963C0 118.262 6.93408 137.981 18.6331 154L31.739 143.038C22.5625 130.036 17.1176 114.136 17.1176 96.963C17.1176 52.761 52.7808 17.1111 97 17.1111C141.219 17.1111 176.882 52.761 176.882 96.963C176.882 114.136 171.438 130.036 162.261 143.038L175.367 154C187.065 137.981 194 118.262 194 96.963C194 43.5133 150.47 0 97 0ZM97 48.4815L82.7353 119.778C82.7353 127.653 89.1219 134.037 97 134.037C104.878 134.037 111.265 127.653 111.265 119.778L97 48.4815Z" fill="black"/>
</svg>
