<svg width="1000" height="1000" viewBox="0 0 1000 1000" fill="none" xmlns="http://www.w3.org/2000/svg">
<mask id="mask0_421_796" style="mask-type:luminance" maskUnits="userSpaceOnUse" x="440" y="245" width="120" height="509">
<path d="M440 245.833H560V753.703H440V245.833Z" fill="white"/>
</mask>
<g mask="url(#mask0_421_796)">
<path d="M524.766 247.735L467.542 644.432C458.833 650.094 451.49 658.094 446.594 668.083C432.125 697.573 444.328 733.193 473.823 747.636C503.328 762.078 538.974 749.88 553.427 720.406C565.599 695.552 558.849 666.344 538.76 649.136L529.24 248.011C529.177 245.25 525.172 245.021 524.766 247.735Z" fill="white"/>
</g>
<path d="M100.422 665.787C100.422 675.354 100.781 684.854 101.411 694.255C115.12 506.63 271.755 358.682 463 358.682C469.786 358.682 476.526 358.88 483.214 359.235L499.161 248.662C277.26 258.636 100.422 441.573 100.422 665.787Z" fill="#F6D0A5"/>
<mask id="mask1_421_796" style="mask-type:luminance" maskUnits="userSpaceOnUse" x="553" y="249" width="347" height="287">
<path d="M553.333 249.333H899.583V536H553.333V249.333Z" fill="white"/>
</mask>
<g mask="url(#mask1_421_796)">
<path d="M554.5 249.787L557.38 371.094C649.229 395.766 726.667 455.625 774.354 535.292L899.583 494.87C838.938 359.932 708.682 263.026 554.5 249.787Z" fill="#888888"/>
</g>
</svg>
