<svg width="25" height="18" viewBox="0 0 21 28" fill="none" xmlns="http://www.w3.org/2000/svg">
<path d="M11.7961 27.3708C14.6016 23.8508 21 15.3193 21 10.5272C21 4.71533 16.2969 0 10.5 0C4.70312 0 0 4.71533 0 10.5272C0 15.3193 6.39844 23.8508 9.20391 27.3708C9.87656 28.2097 11.1234 28.2097 11.7961 27.3708ZM10.5 7.01816C11.4283 7.01816 12.3185 7.38787 12.9749 8.04595C13.6313 8.70403 14 9.59658 14 10.5272C14 11.4579 13.6313 12.3505 12.9749 13.0085C12.3185 13.6666 11.4283 14.0363 10.5 14.0363C9.57174 14.0363 8.6815 13.6666 8.02513 13.0085C7.36875 12.3505 7 11.4579 7 10.5272C7 9.59658 7.36875 8.70403 8.02513 8.04595C8.6815 7.38787 9.57174 7.01816 10.5 7.01816Z" fill="#F6D0A5"/>
</svg>
