<svg width="400" height="364" viewBox="0 0 400 364" fill="none" xmlns="http://www.w3.org/2000/svg">
<path d="M200 0C151.674 0 112.5 40.104 112.5 89.5781C112.5 129.575 169.687 202.475 191.597 228.936C196.035 234.297 203.972 234.297 208.403 228.936C230.312 202.475 287.5 129.575 287.5 89.5781C287.5 40.104 248.326 0 200 0ZM200 119.438C183.889 119.438 170.833 106.072 170.833 89.5781C170.833 73.0844 183.889 59.7188 200 59.7188C216.111 59.7188 229.167 73.0844 229.167 89.5781C229.167 106.072 216.111 119.438 200 119.438ZM13.9722 153.527C9.84846 155.216 6.31341 158.13 3.82298 161.895C1.33256 165.66 0.000987644 170.102 0 174.649L0 352.611C0 360.659 7.9375 366.161 15.2361 363.175L111.111 318.5V152.795C104.972 141.434 99.9514 130.372 96.3542 119.793L13.9722 153.527ZM200 255.703C190.229 255.703 180.986 251.309 174.646 243.645C160.993 227.152 146.472 208.369 133.333 189.102V318.493L266.667 363.993V189.109C253.528 208.369 239.014 227.159 225.354 243.653C219.014 251.309 209.771 255.703 200 255.703ZM384.764 114.575L288.889 159.25V364L386.028 324.223C390.152 322.535 393.688 319.621 396.178 315.856C398.669 312.091 400 307.648 400 303.101V125.139C400 117.091 392.062 111.589 384.764 114.575Z" fill="#414141"/>
</svg>
